<svg width="895" height="72" viewBox="0 0 895 72" fill="none" xmlns="http://www.w3.org/2000/svg">
<g clip-path="url(#clip0_1_307)">
<path d="M0 44.3126V56.6157H2.51007H5.02014V51.6157V46.5862L6.94384 46.6453L8.86754 46.7043L11.82 51.6453L14.7518 56.5862L17.6425 56.6157C19.2062 56.6157 20.5023 56.5764 20.5023 56.5173C20.5023 56.4582 19.165 54.1748 17.5499 51.4484C15.9143 48.722 14.5563 46.4484 14.5152 46.3795C14.4741 46.3008 14.9678 46.0055 15.6365 45.6807C17.1693 44.9523 18.7124 43.5842 19.3707 42.3441C20.2863 40.5823 20.3377 37.4819 19.453 35.8382C18.5375 34.1354 16.3978 32.6984 14.042 32.2161C13.3733 32.0783 10.4209 31.9897 6.47063 31.9897H0V44.3126ZM13.3219 36.6157C14.4741 37.1177 15.0604 38.0134 15.0604 39.3126C15.0604 40.5134 14.5358 41.4386 13.5585 41.9504C12.9721 42.2456 12.2417 42.3244 8.96013 42.3736L5.03043 42.4523V39.3224V36.1925H8.7441C11.9434 36.2122 12.5709 36.2712 13.3219 36.6157Z" fill="black"/>
<path d="M79.8799 44.5197V56.626H82.2871H84.6943V44.5197V32.4134H82.2871H79.8799V44.5197Z" fill="black"/>
<path d="M106.472 43.7514C106.534 53.0821 106.534 53.1215 107.017 54.0565C107.563 55.1195 108.859 56.3203 109.908 56.7337C110.361 56.9109 111.41 57.0093 112.912 57.0093H115.216V55.0112V53.0132H113.879C112.861 53.0132 112.439 52.9148 111.996 52.59L111.451 52.1864V47.4817V42.8065H113.334H115.216V40.9069V39.0073H113.334H111.451V36.7042V34.401H108.921H106.411L106.472 43.7514Z" fill="black"/>
<path d="M26.9318 38.9878C25.2344 39.5292 24.0823 40.2181 22.8581 41.4485C21.6031 42.7477 21.0167 43.7516 20.5949 45.4544C19.4736 50.0213 21.531 54.3914 25.7179 56.291C27.0141 56.8914 27.1787 56.9209 29.7916 56.9209C32.1268 56.9209 32.6823 56.8618 33.7213 56.4485C35.1821 55.8874 37.1367 54.2437 37.9082 52.8855L38.4534 51.9111L36.7766 50.976C35.8611 50.4544 35.0278 50.041 34.9352 50.041C34.8529 50.041 34.4929 50.4445 34.1225 50.917C33.2893 52.0784 32.1577 52.7772 30.7792 53.0429C29.555 53.2693 28.6601 53.1414 27.6005 52.6197C26.3454 52.0193 25.0904 50.4445 25.0904 49.4406C25.0904 49.037 25.1727 49.037 31.9931 49.037H38.8958V47.3638C38.8958 43.5252 37.0441 40.6906 33.567 39.2241C32.0754 38.5548 28.6189 38.4563 26.9318 38.9878ZM32.5795 42.8953C33.1247 43.2595 33.6493 43.8303 33.9785 44.4996L34.5237 45.5233L29.8842 45.5823C27.333 45.6118 25.2036 45.5823 25.1418 45.5233C24.8538 45.2477 26.3557 43.4563 27.405 42.8559C28.4749 42.226 28.6601 42.1965 30.1517 42.2555C31.4685 42.3146 31.8491 42.3933 32.5795 42.8953Z" fill="black"/>
<path d="M64.8503 38.9191C62.1551 39.6474 59.6656 41.547 58.6472 43.6828C57.9168 45.2478 57.5979 47.6494 57.9168 49.4604C58.7295 54.1947 62.3814 57.0293 67.741 57.0293C70.8786 57.0293 72.9669 56.301 74.9935 54.5687C76.1662 53.545 76.9583 52.2655 77.4727 50.5431C77.915 49.0765 77.8122 45.8088 77.2875 44.4112C76.4234 42.1474 74.1499 40.051 71.5781 39.175C69.9836 38.6139 66.4654 38.486 64.8503 38.9191ZM69.9425 43.3876C72.8743 44.6277 73.8413 48.3679 71.8662 50.8482C70.4671 52.61 67.5147 53.2695 65.5293 52.2754C64.4491 51.7143 63.2661 50.4742 62.9369 49.5096C62.5151 48.3088 62.762 46.173 63.4204 45.238C64.9018 43.0923 67.4736 42.3738 69.9425 43.3876Z" fill="black"/>
<path d="M38.7518 39.2932C38.8135 39.431 40.4903 43.3976 42.4757 48.0924L46.0968 56.6357L48.3703 56.5767L50.6437 56.5176L54.1722 48.2105C56.1165 43.6436 57.7625 39.7066 57.8345 39.4409L57.9682 38.9783L55.417 39.0373L52.8452 39.0964L50.6232 44.7361C49.4093 47.8365 48.3497 50.3168 48.288 50.2381C48.2057 50.1594 47.177 47.6003 45.9837 44.5393L43.8131 38.9979H41.2207C39.1324 39.0176 38.6592 39.0767 38.7518 39.2932Z" fill="black"/>
<path d="M87.1941 44.4799C87.1941 47.5606 87.2969 50.4543 87.4307 51.1236C87.8833 53.5645 89.2515 55.2476 91.5764 56.3007C92.9137 56.9011 93.068 56.9307 95.7838 56.9307C98.4379 56.9307 98.6848 56.8913 99.8576 56.3696C102.182 55.3362 103.664 53.5055 104.116 51.1334C104.25 50.474 104.353 47.5704 104.353 44.4897V39.0271H101.977H99.5695L99.5078 44.47C99.4461 49.6964 99.4255 49.972 98.9626 50.7692C98.2939 51.97 97.1623 52.4917 95.4752 52.3933C93.9733 52.3145 93.1092 51.8224 92.5228 50.6905C92.1731 50.0114 92.1319 49.3322 92.0702 44.4602L92.0085 39.0173H89.6013H87.2249V44.4799H87.1941Z" fill="black"/>
</g>
<path d="M8.0127 16.8501V18H2.36572V16.8501H8.0127ZM2.65137 7.33594V18H1.23779V7.33594H2.65137ZM7.26562 11.9209V13.0708H2.36572V11.9209H7.26562ZM7.93945 7.33594V8.49316H2.36572V7.33594H7.93945ZM14.4067 16.4619V6.75H15.769V18H14.5239L14.4067 16.4619ZM9.07471 14.1255V13.9717C9.07471 13.3662 9.14795 12.8169 9.29443 12.3237C9.4458 11.8257 9.6582 11.3984 9.93164 11.042C10.21 10.6855 10.5396 10.4121 10.9204 10.2217C11.3062 10.0264 11.7358 9.92871 12.2095 9.92871C12.7075 9.92871 13.1421 10.0166 13.5132 10.1924C13.8892 10.3633 14.2065 10.6147 14.4653 10.9468C14.729 11.2739 14.9365 11.6694 15.0879 12.1333C15.2393 12.5972 15.3442 13.1221 15.4028 13.708V14.3818C15.3491 14.9629 15.2441 15.4854 15.0879 15.9492C14.9365 16.4131 14.729 16.8086 14.4653 17.1357C14.2065 17.4629 13.8892 17.7144 13.5132 17.8901C13.1372 18.061 12.6978 18.1465 12.1948 18.1465C11.731 18.1465 11.3062 18.0464 10.9204 17.8462C10.5396 17.646 10.21 17.3652 9.93164 17.0039C9.6582 16.6426 9.4458 16.2178 9.29443 15.7295C9.14795 15.2363 9.07471 14.7017 9.07471 14.1255ZM10.437 13.9717V14.1255C10.437 14.521 10.4761 14.8921 10.5542 15.2388C10.6372 15.5854 10.7642 15.8906 10.9351 16.1543C11.106 16.418 11.3232 16.6255 11.5869 16.7769C11.8506 16.9233 12.1655 16.9966 12.5317 16.9966C12.981 16.9966 13.3496 16.9014 13.6377 16.7109C13.9307 16.5205 14.165 16.269 14.3408 15.9565C14.5166 15.644 14.6533 15.3047 14.751 14.9385V13.1733C14.6924 12.9048 14.6069 12.646 14.4946 12.397C14.3872 12.1431 14.2456 11.9185 14.0698 11.7231C13.8989 11.5229 13.6865 11.3643 13.4326 11.2471C13.1836 11.1299 12.8882 11.0713 12.5464 11.0713C12.1753 11.0713 11.8555 11.1494 11.5869 11.3057C11.3232 11.457 11.106 11.667 10.9351 11.9355C10.7642 12.1992 10.6372 12.5068 10.5542 12.8584C10.4761 13.2051 10.437 13.5762 10.437 13.9717ZM19.8853 16.5938L21.9214 10.0752H22.8149L22.6392 11.3716L20.5664 18H19.6948L19.8853 16.5938ZM18.5156 10.0752L20.2515 16.667L20.376 18H19.4604L17.1606 10.0752H18.5156ZM24.7632 16.6157L26.4185 10.0752H27.7661L25.4663 18H24.5581L24.7632 16.6157ZM23.0127 10.0752L25.0049 16.4839L25.2319 18H24.3677L22.2363 11.3569L22.0605 10.0752H23.0127ZM33.8306 16.645V12.5654C33.8306 12.2529 33.7671 11.9819 33.6401 11.7524C33.5181 11.5181 33.3325 11.3374 33.0835 11.2104C32.8345 11.0835 32.5269 11.02 32.1606 11.02C31.8188 11.02 31.5186 11.0786 31.2598 11.1958C31.0059 11.313 30.8057 11.4668 30.6592 11.6572C30.5176 11.8477 30.4468 12.0527 30.4468 12.2725H29.0918C29.0918 11.9893 29.165 11.7085 29.3115 11.4302C29.458 11.1519 29.668 10.9004 29.9414 10.6758C30.2197 10.4463 30.5518 10.2656 30.9375 10.1338C31.3281 9.99707 31.7627 9.92871 32.2412 9.92871C32.8174 9.92871 33.3252 10.0264 33.7646 10.2217C34.209 10.417 34.5557 10.7124 34.8047 11.1079C35.0586 11.4985 35.1855 11.9893 35.1855 12.5801V16.2715C35.1855 16.5352 35.2075 16.8159 35.2515 17.1138C35.3003 17.4116 35.3711 17.668 35.4639 17.8828V18H34.0503C33.9819 17.8438 33.9282 17.6362 33.8892 17.3774C33.8501 17.1138 33.8306 16.8696 33.8306 16.645ZM34.0649 13.1953L34.0796 14.1475H32.71C32.3242 14.1475 31.98 14.1792 31.6772 14.2427C31.3745 14.3013 31.1206 14.3916 30.9155 14.5137C30.7104 14.6357 30.5542 14.7896 30.4468 14.9751C30.3394 15.1558 30.2856 15.3682 30.2856 15.6123C30.2856 15.8613 30.3418 16.0884 30.4541 16.2935C30.5664 16.4985 30.7349 16.6621 30.9595 16.7842C31.189 16.9014 31.4697 16.96 31.8018 16.96C32.2168 16.96 32.583 16.8721 32.9004 16.6963C33.2178 16.5205 33.4692 16.3057 33.6548 16.0518C33.8452 15.7979 33.9478 15.5513 33.9624 15.312L34.541 15.9639C34.5068 16.1689 34.4141 16.396 34.2627 16.645C34.1113 16.894 33.9087 17.1333 33.6548 17.3628C33.4058 17.5874 33.1079 17.7754 32.7612 17.9268C32.4194 18.0732 32.0337 18.1465 31.604 18.1465C31.0669 18.1465 30.5957 18.0415 30.1904 17.8315C29.79 17.6216 29.4775 17.3408 29.2529 16.9893C29.0332 16.6328 28.9233 16.2349 28.9233 15.7954C28.9233 15.3706 29.0063 14.9971 29.1724 14.6748C29.3384 14.3477 29.5776 14.0767 29.8901 13.8618C30.2026 13.6421 30.5786 13.4761 31.0181 13.3638C31.4575 13.2515 31.9482 13.1953 32.4902 13.1953H34.0649ZM38.6719 11.3203V18H37.3169V10.0752H38.6353L38.6719 11.3203ZM41.1475 10.0312L41.1401 11.291C41.0278 11.2666 40.9204 11.252 40.8179 11.2471C40.7202 11.2373 40.6079 11.2324 40.481 11.2324C40.1685 11.2324 39.8926 11.2812 39.6533 11.3789C39.4141 11.4766 39.2114 11.6133 39.0454 11.7891C38.8794 11.9648 38.7476 12.1748 38.6499 12.4189C38.5571 12.6582 38.4961 12.9219 38.4668 13.21L38.0859 13.4297C38.0859 12.9512 38.1323 12.502 38.2251 12.082C38.3228 11.6621 38.4717 11.291 38.6719 10.9688C38.8721 10.6416 39.126 10.3877 39.4336 10.207C39.7461 10.0215 40.1172 9.92871 40.5469 9.92871C40.6445 9.92871 40.7568 9.94092 40.8838 9.96533C41.0107 9.98486 41.0986 10.0068 41.1475 10.0312ZM47.2485 16.4619V6.75H48.6108V18H47.3657L47.2485 16.4619ZM41.9165 14.1255V13.9717C41.9165 13.3662 41.9897 12.8169 42.1362 12.3237C42.2876 11.8257 42.5 11.3984 42.7734 11.042C43.0518 10.6855 43.3813 10.4121 43.7622 10.2217C44.1479 10.0264 44.5776 9.92871 45.0513 9.92871C45.5493 9.92871 45.9839 10.0166 46.355 10.1924C46.731 10.3633 47.0483 10.6147 47.3071 10.9468C47.5708 11.2739 47.7783 11.6694 47.9297 12.1333C48.0811 12.5972 48.186 13.1221 48.2446 13.708V14.3818C48.1909 14.9629 48.0859 15.4854 47.9297 15.9492C47.7783 16.4131 47.5708 16.8086 47.3071 17.1357C47.0483 17.4629 46.731 17.7144 46.355 17.8901C45.979 18.061 45.5396 18.1465 45.0366 18.1465C44.5728 18.1465 44.1479 18.0464 43.7622 17.8462C43.3813 17.646 43.0518 17.3652 42.7734 17.0039C42.5 16.6426 42.2876 16.2178 42.1362 15.7295C41.9897 15.2363 41.9165 14.7017 41.9165 14.1255ZM43.2788 13.9717V14.1255C43.2788 14.521 43.3179 14.8921 43.396 15.2388C43.479 15.5854 43.606 15.8906 43.7769 16.1543C43.9478 16.418 44.165 16.6255 44.4287 16.7769C44.6924 16.9233 45.0073 16.9966 45.3735 16.9966C45.8228 16.9966 46.1914 16.9014 46.4795 16.7109C46.7725 16.5205 47.0068 16.269 47.1826 15.9565C47.3584 15.644 47.4951 15.3047 47.5928 14.9385V13.1733C47.5342 12.9048 47.4487 12.646 47.3364 12.397C47.229 12.1431 47.0874 11.9185 46.9116 11.7231C46.7407 11.5229 46.5283 11.3643 46.2744 11.2471C46.0254 11.1299 45.73 11.0713 45.3882 11.0713C45.0171 11.0713 44.6973 11.1494 44.4287 11.3057C44.165 11.457 43.9478 11.667 43.7769 11.9355C43.606 12.1992 43.479 12.5068 43.396 12.8584C43.3179 13.2051 43.2788 13.5762 43.2788 13.9717ZM61.084 14.6089H62.4902C62.417 15.2827 62.2241 15.8857 61.9116 16.418C61.5991 16.9502 61.1572 17.3726 60.5859 17.6851C60.0146 17.9927 59.3018 18.1465 58.4473 18.1465C57.8223 18.1465 57.2534 18.0293 56.7407 17.7949C56.2329 17.5605 55.7959 17.2285 55.4297 16.7988C55.0635 16.3643 54.7803 15.8442 54.5801 15.2388C54.3848 14.6284 54.2871 13.9497 54.2871 13.2026V12.1406C54.2871 11.3936 54.3848 10.7173 54.5801 10.1118C54.7803 9.50146 55.0659 8.979 55.437 8.54443C55.813 8.10986 56.2646 7.77539 56.792 7.54102C57.3193 7.30664 57.9126 7.18945 58.5718 7.18945C59.3774 7.18945 60.0586 7.34082 60.6152 7.64355C61.1719 7.94629 61.604 8.36621 61.9116 8.90332C62.2241 9.43555 62.417 10.0532 62.4902 10.7563H61.084C61.0156 10.2583 60.8887 9.83105 60.7031 9.47461C60.5176 9.11328 60.2539 8.83496 59.9121 8.63965C59.5703 8.44434 59.1235 8.34668 58.5718 8.34668C58.0981 8.34668 57.6807 8.43701 57.3193 8.61768C56.9629 8.79834 56.6626 9.05469 56.4185 9.38672C56.1792 9.71875 55.9985 10.1167 55.8765 10.5806C55.7544 11.0444 55.6934 11.5596 55.6934 12.126V13.2026C55.6934 13.7251 55.7471 14.2158 55.8545 14.6748C55.9668 15.1338 56.1353 15.5366 56.3599 15.8833C56.5845 16.23 56.8701 16.5034 57.2168 16.7036C57.5635 16.8989 57.9736 16.9966 58.4473 16.9966C59.0479 16.9966 59.5264 16.9014 59.8828 16.7109C60.2393 16.5205 60.5078 16.2471 60.6885 15.8906C60.874 15.5342 61.0059 15.1069 61.084 14.6089ZM63.8525 14.1255V13.957C63.8525 13.3857 63.9355 12.856 64.1016 12.3677C64.2676 11.8745 64.5068 11.4473 64.8193 11.0859C65.1318 10.7197 65.5103 10.4365 65.9546 10.2363C66.3989 10.0312 66.897 9.92871 67.4487 9.92871C68.0054 9.92871 68.5059 10.0312 68.9502 10.2363C69.3994 10.4365 69.7803 10.7197 70.0928 11.0859C70.4102 11.4473 70.6519 11.8745 70.8179 12.3677C70.9839 12.856 71.0669 13.3857 71.0669 13.957V14.1255C71.0669 14.6968 70.9839 15.2266 70.8179 15.7148C70.6519 16.2031 70.4102 16.6304 70.0928 16.9966C69.7803 17.3579 69.4019 17.6411 68.9575 17.8462C68.5181 18.0464 68.02 18.1465 67.4634 18.1465C66.9067 18.1465 66.4062 18.0464 65.9619 17.8462C65.5176 17.6411 65.1367 17.3579 64.8193 16.9966C64.5068 16.6304 64.2676 16.2031 64.1016 15.7148C63.9355 15.2266 63.8525 14.6968 63.8525 14.1255ZM65.2075 13.957V14.1255C65.2075 14.521 65.2539 14.8945 65.3467 15.2461C65.4395 15.5928 65.5786 15.9004 65.7642 16.1689C65.9546 16.4375 66.1914 16.6499 66.4746 16.8062C66.7578 16.9575 67.0874 17.0332 67.4634 17.0332C67.8345 17.0332 68.1592 16.9575 68.4375 16.8062C68.7207 16.6499 68.9551 16.4375 69.1406 16.1689C69.3262 15.9004 69.4653 15.5928 69.5581 15.2461C69.6558 14.8945 69.7046 14.521 69.7046 14.1255V13.957C69.7046 13.5664 69.6558 13.1978 69.5581 12.8511C69.4653 12.4995 69.3237 12.1895 69.1333 11.9209C68.9478 11.6475 68.7134 11.4326 68.4302 11.2764C68.1519 11.1201 67.8247 11.042 67.4487 11.042C67.0776 11.042 66.7505 11.1201 66.4673 11.2764C66.189 11.4326 65.9546 11.6475 65.7642 11.9209C65.5786 12.1895 65.4395 12.4995 65.3467 12.8511C65.2539 13.1978 65.2075 13.5664 65.2075 13.957ZM72.4072 14.1255V13.957C72.4072 13.3857 72.4902 12.856 72.6562 12.3677C72.8223 11.8745 73.0615 11.4473 73.374 11.0859C73.6865 10.7197 74.0649 10.4365 74.5093 10.2363C74.9536 10.0312 75.4517 9.92871 76.0034 9.92871C76.5601 9.92871 77.0605 10.0312 77.5049 10.2363C77.9541 10.4365 78.335 10.7197 78.6475 11.0859C78.9648 11.4473 79.2065 11.8745 79.3726 12.3677C79.5386 12.856 79.6216 13.3857 79.6216 13.957V14.1255C79.6216 14.6968 79.5386 15.2266 79.3726 15.7148C79.2065 16.2031 78.9648 16.6304 78.6475 16.9966C78.335 17.3579 77.9565 17.6411 77.5122 17.8462C77.0728 18.0464 76.5747 18.1465 76.0181 18.1465C75.4614 18.1465 74.9609 18.0464 74.5166 17.8462C74.0723 17.6411 73.6914 17.3579 73.374 16.9966C73.0615 16.6304 72.8223 16.2031 72.6562 15.7148C72.4902 15.2266 72.4072 14.6968 72.4072 14.1255ZM73.7622 13.957V14.1255C73.7622 14.521 73.8086 14.8945 73.9014 15.2461C73.9941 15.5928 74.1333 15.9004 74.3188 16.1689C74.5093 16.4375 74.7461 16.6499 75.0293 16.8062C75.3125 16.9575 75.6421 17.0332 76.0181 17.0332C76.3892 17.0332 76.7139 16.9575 76.9922 16.8062C77.2754 16.6499 77.5098 16.4375 77.6953 16.1689C77.8809 15.9004 78.02 15.5928 78.1128 15.2461C78.2104 14.8945 78.2593 14.521 78.2593 14.1255V13.957C78.2593 13.5664 78.2104 13.1978 78.1128 12.8511C78.02 12.4995 77.8784 12.1895 77.688 11.9209C77.5024 11.6475 77.2681 11.4326 76.9849 11.2764C76.7065 11.1201 76.3794 11.042 76.0034 11.042C75.6323 11.042 75.3052 11.1201 75.022 11.2764C74.7437 11.4326 74.5093 11.6475 74.3188 11.9209C74.1333 12.1895 73.9941 12.4995 73.9014 12.8511C73.8086 13.1978 73.7622 13.5664 73.7622 13.957ZM82.6758 11.5986V21.0469H81.3135V10.0752H82.5586L82.6758 11.5986ZM88.0151 13.9717V14.1255C88.0151 14.7017 87.9468 15.2363 87.8101 15.7295C87.6733 16.2178 87.4731 16.6426 87.2095 17.0039C86.9507 17.3652 86.6309 17.646 86.25 17.8462C85.8691 18.0464 85.4321 18.1465 84.939 18.1465C84.436 18.1465 83.9917 18.0635 83.606 17.8975C83.2202 17.7314 82.8931 17.4897 82.6245 17.1724C82.356 16.855 82.1411 16.4741 81.98 16.0298C81.8237 15.5854 81.7163 15.085 81.6577 14.5283V13.708C81.7163 13.1221 81.8262 12.5972 81.9873 12.1333C82.1484 11.6694 82.3608 11.2739 82.6245 10.9468C82.8931 10.6147 83.2178 10.3633 83.5986 10.1924C83.9795 10.0166 84.4189 9.92871 84.917 9.92871C85.415 9.92871 85.8569 10.0264 86.2427 10.2217C86.6284 10.4121 86.9531 10.6855 87.2168 11.042C87.4805 11.3984 87.6782 11.8257 87.8101 12.3237C87.9468 12.8169 88.0151 13.3662 88.0151 13.9717ZM86.6528 14.1255V13.9717C86.6528 13.5762 86.6113 13.2051 86.5283 12.8584C86.4453 12.5068 86.3159 12.1992 86.1401 11.9355C85.9692 11.667 85.7495 11.457 85.481 11.3057C85.2124 11.1494 84.8926 11.0713 84.5215 11.0713C84.1797 11.0713 83.8818 11.1299 83.6279 11.2471C83.3789 11.3643 83.1665 11.5229 82.9907 11.7231C82.8149 11.9185 82.6709 12.1431 82.5586 12.397C82.4512 12.646 82.3706 12.9048 82.3169 13.1733V15.0703C82.4146 15.4121 82.5513 15.7344 82.7271 16.0371C82.9028 16.335 83.1372 16.5767 83.4302 16.7622C83.7231 16.9429 84.0918 17.0332 84.5361 17.0332C84.9023 17.0332 85.2173 16.9575 85.481 16.8062C85.7495 16.6499 85.9692 16.4375 86.1401 16.1689C86.3159 15.9004 86.4453 15.5928 86.5283 15.2461C86.6113 14.8945 86.6528 14.521 86.6528 14.1255ZM93.0322 18.1465C92.4805 18.1465 91.98 18.0537 91.5308 17.8682C91.0864 17.6777 90.7031 17.4116 90.3809 17.0698C90.0635 16.728 89.8193 16.3228 89.6484 15.854C89.4775 15.3853 89.3921 14.8726 89.3921 14.3159V14.0083C89.3921 13.3638 89.4873 12.79 89.6777 12.2871C89.8682 11.7793 90.127 11.3496 90.4541 10.998C90.7812 10.6465 91.1523 10.3804 91.5674 10.1997C91.9824 10.019 92.4121 9.92871 92.8564 9.92871C93.4229 9.92871 93.9111 10.0264 94.3213 10.2217C94.7363 10.417 95.0757 10.6904 95.3394 11.042C95.603 11.3887 95.7983 11.7988 95.9253 12.2725C96.0522 12.7412 96.1157 13.2539 96.1157 13.8105V14.4185H90.1978V13.3125H94.7607V13.21C94.7412 12.8584 94.668 12.5166 94.541 12.1846C94.4189 11.8525 94.2236 11.5791 93.9551 11.3643C93.6865 11.1494 93.3203 11.042 92.8564 11.042C92.5488 11.042 92.2656 11.1079 92.0068 11.2397C91.748 11.3667 91.5259 11.5571 91.3403 11.811C91.1548 12.0649 91.0107 12.375 90.9082 12.7412C90.8057 13.1074 90.7544 13.5298 90.7544 14.0083V14.3159C90.7544 14.6919 90.8057 15.0459 90.9082 15.3779C91.0156 15.7051 91.1694 15.9932 91.3696 16.2422C91.5747 16.4912 91.8213 16.6865 92.1094 16.8281C92.4023 16.9697 92.7344 17.0405 93.1055 17.0405C93.584 17.0405 93.9893 16.9429 94.3213 16.7476C94.6533 16.5522 94.9438 16.291 95.1929 15.9639L96.0132 16.6157C95.8423 16.8745 95.625 17.1211 95.3613 17.3555C95.0977 17.5898 94.7729 17.7803 94.3872 17.9268C94.0063 18.0732 93.5547 18.1465 93.0322 18.1465ZM99.0527 11.3203V18H97.6978V10.0752H99.0161L99.0527 11.3203ZM101.528 10.0312L101.521 11.291C101.409 11.2666 101.301 11.252 101.199 11.2471C101.101 11.2373 100.989 11.2324 100.862 11.2324C100.549 11.2324 100.273 11.2812 100.034 11.3789C99.7949 11.4766 99.5923 11.6133 99.4263 11.7891C99.2603 11.9648 99.1284 12.1748 99.0308 12.4189C98.938 12.6582 98.877 12.9219 98.8477 13.21L98.4668 13.4297C98.4668 12.9512 98.5132 12.502 98.606 12.082C98.7036 11.6621 98.8525 11.291 99.0527 10.9688C99.2529 10.6416 99.5068 10.3877 99.8145 10.207C100.127 10.0215 100.498 9.92871 100.928 9.92871C101.025 9.92871 101.138 9.94092 101.265 9.96533C101.392 9.98486 101.479 10.0068 101.528 10.0312ZM103.103 16.3887V17.48C103.103 17.9243 102.991 18.3931 102.766 18.8862C102.542 19.3843 102.227 19.7993 101.821 20.1313L101.052 19.5967C101.208 19.3818 101.34 19.1621 101.448 18.9375C101.555 18.7178 101.636 18.4883 101.689 18.249C101.748 18.0146 101.777 17.7656 101.777 17.502V16.3887H103.103ZM115.195 14.6089H116.602C116.528 15.2827 116.335 15.8857 116.023 16.418C115.71 16.9502 115.269 17.3726 114.697 17.6851C114.126 17.9927 113.413 18.1465 112.559 18.1465C111.934 18.1465 111.365 18.0293 110.852 17.7949C110.344 17.5605 109.907 17.2285 109.541 16.7988C109.175 16.3643 108.892 15.8442 108.691 15.2388C108.496 14.6284 108.398 13.9497 108.398 13.2026V12.1406C108.398 11.3936 108.496 10.7173 108.691 10.1118C108.892 9.50146 109.177 8.979 109.548 8.54443C109.924 8.10986 110.376 7.77539 110.903 7.54102C111.431 7.30664 112.024 7.18945 112.683 7.18945C113.489 7.18945 114.17 7.34082 114.727 7.64355C115.283 7.94629 115.715 8.36621 116.023 8.90332C116.335 9.43555 116.528 10.0532 116.602 10.7563H115.195C115.127 10.2583 115 9.83105 114.814 9.47461C114.629 9.11328 114.365 8.83496 114.023 8.63965C113.682 8.44434 113.235 8.34668 112.683 8.34668C112.209 8.34668 111.792 8.43701 111.431 8.61768C111.074 8.79834 110.774 9.05469 110.53 9.38672C110.291 9.71875 110.11 10.1167 109.988 10.5806C109.866 11.0444 109.805 11.5596 109.805 12.126V13.2026C109.805 13.7251 109.858 14.2158 109.966 14.6748C110.078 15.1338 110.247 15.5366 110.471 15.8833C110.696 16.23 110.981 16.5034 111.328 16.7036C111.675 16.8989 112.085 16.9966 112.559 16.9966C113.159 16.9966 113.638 16.9014 113.994 16.7109C114.351 16.5205 114.619 16.2471 114.8 15.8906C114.985 15.5342 115.117 15.1069 115.195 14.6089ZM119.678 6.75V18H118.323V6.75H119.678ZM119.355 13.7373L118.792 13.7153C118.796 13.1733 118.877 12.6729 119.033 12.2139C119.189 11.75 119.409 11.3472 119.692 11.0054C119.976 10.6636 120.312 10.3999 120.703 10.2144C121.099 10.0239 121.536 9.92871 122.014 9.92871C122.405 9.92871 122.756 9.98242 123.069 10.0898C123.381 10.1924 123.647 10.3584 123.867 10.5879C124.092 10.8174 124.263 11.1152 124.38 11.4814C124.497 11.8428 124.556 12.2847 124.556 12.8071V18H123.193V12.7925C123.193 12.3774 123.132 12.0454 123.01 11.7964C122.888 11.5425 122.71 11.3594 122.476 11.2471C122.241 11.1299 121.953 11.0713 121.611 11.0713C121.274 11.0713 120.967 11.1421 120.688 11.2837C120.415 11.4253 120.178 11.6206 119.978 11.8696C119.783 12.1187 119.629 12.4043 119.517 12.7266C119.409 13.0439 119.355 13.3809 119.355 13.7373ZM128.057 10.0752V18H126.694V10.0752H128.057ZM126.592 7.97314C126.592 7.75342 126.658 7.56787 126.79 7.4165C126.926 7.26514 127.126 7.18945 127.39 7.18945C127.649 7.18945 127.847 7.26514 127.983 7.4165C128.125 7.56787 128.196 7.75342 128.196 7.97314C128.196 8.18311 128.125 8.36377 127.983 8.51514C127.847 8.66162 127.649 8.73486 127.39 8.73486C127.126 8.73486 126.926 8.66162 126.79 8.51514C126.658 8.36377 126.592 8.18311 126.592 7.97314ZM133.521 18.1465C132.969 18.1465 132.468 18.0537 132.019 17.8682C131.575 17.6777 131.191 17.4116 130.869 17.0698C130.552 16.728 130.308 16.3228 130.137 15.854C129.966 15.3853 129.88 14.8726 129.88 14.3159V14.0083C129.88 13.3638 129.976 12.79 130.166 12.2871C130.356 11.7793 130.615 11.3496 130.942 10.998C131.27 10.6465 131.641 10.3804 132.056 10.1997C132.471 10.019 132.9 9.92871 133.345 9.92871C133.911 9.92871 134.399 10.0264 134.81 10.2217C135.225 10.417 135.564 10.6904 135.828 11.042C136.091 11.3887 136.287 11.7988 136.414 12.2725C136.541 12.7412 136.604 13.2539 136.604 13.8105V14.4185H130.686V13.3125H135.249V13.21C135.229 12.8584 135.156 12.5166 135.029 12.1846C134.907 11.8525 134.712 11.5791 134.443 11.3643C134.175 11.1494 133.809 11.042 133.345 11.042C133.037 11.042 132.754 11.1079 132.495 11.2397C132.236 11.3667 132.014 11.5571 131.829 11.811C131.643 12.0649 131.499 12.375 131.396 12.7412C131.294 13.1074 131.243 13.5298 131.243 14.0083V14.3159C131.243 14.6919 131.294 15.0459 131.396 15.3779C131.504 15.7051 131.658 15.9932 131.858 16.2422C132.063 16.4912 132.31 16.6865 132.598 16.8281C132.891 16.9697 133.223 17.0405 133.594 17.0405C134.072 17.0405 134.478 16.9429 134.81 16.7476C135.142 16.5522 135.432 16.291 135.681 15.9639L136.501 16.6157C136.331 16.8745 136.113 17.1211 135.85 17.3555C135.586 17.5898 135.261 17.7803 134.875 17.9268C134.495 18.0732 134.043 18.1465 133.521 18.1465ZM140.208 18H138.853V9.24023C138.853 8.66895 138.955 8.18799 139.16 7.79736C139.37 7.40186 139.67 7.104 140.061 6.90381C140.452 6.69873 140.916 6.59619 141.453 6.59619C141.609 6.59619 141.765 6.60596 141.921 6.62549C142.083 6.64502 142.239 6.67432 142.39 6.71338L142.317 7.81934C142.214 7.79492 142.097 7.77783 141.965 7.76807C141.838 7.7583 141.711 7.75342 141.584 7.75342C141.296 7.75342 141.047 7.81201 140.837 7.9292C140.632 8.0415 140.476 8.20752 140.369 8.42725C140.261 8.64697 140.208 8.91797 140.208 9.24023V18ZM141.892 10.0752V11.1152H137.6V10.0752H141.892ZM147.773 7.33594H149.143L152.637 16.0298L156.123 7.33594H157.5L153.164 18H152.095L147.773 7.33594ZM147.327 7.33594H148.535L148.733 13.8398V18H147.327V7.33594ZM156.731 7.33594H157.939V18H156.533V13.8398L156.731 7.33594ZM159.858 14.1255V13.957C159.858 13.3857 159.941 12.856 160.107 12.3677C160.273 11.8745 160.513 11.4473 160.825 11.0859C161.138 10.7197 161.516 10.4365 161.96 10.2363C162.405 10.0312 162.903 9.92871 163.455 9.92871C164.011 9.92871 164.512 10.0312 164.956 10.2363C165.405 10.4365 165.786 10.7197 166.099 11.0859C166.416 11.4473 166.658 11.8745 166.824 12.3677C166.99 12.856 167.073 13.3857 167.073 13.957V14.1255C167.073 14.6968 166.99 15.2266 166.824 15.7148C166.658 16.2031 166.416 16.6304 166.099 16.9966C165.786 17.3579 165.408 17.6411 164.963 17.8462C164.524 18.0464 164.026 18.1465 163.469 18.1465C162.913 18.1465 162.412 18.0464 161.968 17.8462C161.523 17.6411 161.143 17.3579 160.825 16.9966C160.513 16.6304 160.273 16.2031 160.107 15.7148C159.941 15.2266 159.858 14.6968 159.858 14.1255ZM161.213 13.957V14.1255C161.213 14.521 161.26 14.8945 161.353 15.2461C161.445 15.5928 161.584 15.9004 161.77 16.1689C161.96 16.4375 162.197 16.6499 162.48 16.8062C162.764 16.9575 163.093 17.0332 163.469 17.0332C163.84 17.0332 164.165 16.9575 164.443 16.8062C164.727 16.6499 164.961 16.4375 165.146 16.1689C165.332 15.9004 165.471 15.5928 165.564 15.2461C165.662 14.8945 165.71 14.521 165.71 14.1255V13.957C165.71 13.5664 165.662 13.1978 165.564 12.8511C165.471 12.4995 165.33 12.1895 165.139 11.9209C164.954 11.6475 164.719 11.4326 164.436 11.2764C164.158 11.1201 163.831 11.042 163.455 11.042C163.083 11.042 162.756 11.1201 162.473 11.2764C162.195 11.4326 161.96 11.6475 161.77 11.9209C161.584 12.1895 161.445 12.4995 161.353 12.8511C161.26 13.1978 161.213 13.5664 161.213 13.957ZM168.765 6.75H170.127V16.4619L170.01 18H168.765V6.75ZM175.481 13.9717V14.1255C175.481 14.7017 175.413 15.2363 175.276 15.7295C175.139 16.2178 174.939 16.6426 174.675 17.0039C174.412 17.3652 174.089 17.646 173.708 17.8462C173.328 18.0464 172.891 18.1465 172.397 18.1465C171.895 18.1465 171.453 18.061 171.072 17.8901C170.696 17.7144 170.378 17.4629 170.12 17.1357C169.861 16.8086 169.653 16.4131 169.497 15.9492C169.346 15.4854 169.241 14.9629 169.182 14.3818V13.708C169.241 13.1221 169.346 12.5972 169.497 12.1333C169.653 11.6694 169.861 11.2739 170.12 10.9468C170.378 10.6147 170.696 10.3633 171.072 10.1924C171.448 10.0166 171.885 9.92871 172.383 9.92871C172.881 9.92871 173.323 10.0264 173.708 10.2217C174.094 10.4121 174.417 10.6855 174.675 11.042C174.939 11.3984 175.139 11.8257 175.276 12.3237C175.413 12.8169 175.481 13.3662 175.481 13.9717ZM174.119 14.1255V13.9717C174.119 13.5762 174.082 13.2051 174.009 12.8584C173.936 12.5068 173.818 12.1992 173.657 11.9355C173.496 11.667 173.284 11.457 173.02 11.3057C172.756 11.1494 172.432 11.0713 172.046 11.0713C171.704 11.0713 171.406 11.1299 171.152 11.2471C170.903 11.3643 170.691 11.5229 170.515 11.7231C170.339 11.9185 170.195 12.1431 170.083 12.397C169.976 12.646 169.895 12.9048 169.841 13.1733V14.9385C169.919 15.2803 170.046 15.6099 170.222 15.9272C170.403 16.2397 170.642 16.4961 170.94 16.6963C171.243 16.8965 171.616 16.9966 172.061 16.9966C172.427 16.9966 172.739 16.9233 172.998 16.7769C173.262 16.6255 173.474 16.418 173.635 16.1543C173.801 15.8906 173.923 15.5854 174.001 15.2388C174.08 14.8921 174.119 14.521 174.119 14.1255ZM178.667 10.0752V18H177.305V10.0752H178.667ZM177.202 7.97314C177.202 7.75342 177.268 7.56787 177.4 7.4165C177.537 7.26514 177.737 7.18945 178 7.18945C178.259 7.18945 178.457 7.26514 178.594 7.4165C178.735 7.56787 178.806 7.75342 178.806 7.97314C178.806 8.18311 178.735 8.36377 178.594 8.51514C178.457 8.66162 178.259 8.73486 178 8.73486C177.737 8.73486 177.537 8.66162 177.4 8.51514C177.268 8.36377 177.202 8.18311 177.202 7.97314ZM182.314 6.75V18H180.952V6.75H182.314ZM187.778 18.1465C187.227 18.1465 186.726 18.0537 186.277 17.8682C185.833 17.6777 185.449 17.4116 185.127 17.0698C184.81 16.728 184.565 16.3228 184.395 15.854C184.224 15.3853 184.138 14.8726 184.138 14.3159V14.0083C184.138 13.3638 184.233 12.79 184.424 12.2871C184.614 11.7793 184.873 11.3496 185.2 10.998C185.527 10.6465 185.898 10.3804 186.313 10.1997C186.729 10.019 187.158 9.92871 187.603 9.92871C188.169 9.92871 188.657 10.0264 189.067 10.2217C189.482 10.417 189.822 10.6904 190.085 11.042C190.349 11.3887 190.544 11.7988 190.671 12.2725C190.798 12.7412 190.862 13.2539 190.862 13.8105V14.4185H184.944V13.3125H189.507V13.21C189.487 12.8584 189.414 12.5166 189.287 12.1846C189.165 11.8525 188.97 11.5791 188.701 11.3643C188.433 11.1494 188.066 11.042 187.603 11.042C187.295 11.042 187.012 11.1079 186.753 11.2397C186.494 11.3667 186.272 11.5571 186.086 11.811C185.901 12.0649 185.757 12.375 185.654 12.7412C185.552 13.1074 185.5 13.5298 185.5 14.0083V14.3159C185.5 14.6919 185.552 15.0459 185.654 15.3779C185.762 15.7051 185.916 15.9932 186.116 16.2422C186.321 16.4912 186.567 16.6865 186.855 16.8281C187.148 16.9697 187.48 17.0405 187.852 17.0405C188.33 17.0405 188.735 16.9429 189.067 16.7476C189.399 16.5522 189.69 16.291 189.939 15.9639L190.759 16.6157C190.588 16.8745 190.371 17.1211 190.107 17.3555C189.844 17.5898 189.519 17.7803 189.133 17.9268C188.752 18.0732 188.301 18.1465 187.778 18.1465ZM204.58 12.3311V13.0049C204.58 13.8057 204.48 14.5234 204.28 15.1582C204.08 15.793 203.792 16.3325 203.416 16.7769C203.04 17.2212 202.588 17.5605 202.061 17.7949C201.538 18.0293 200.952 18.1465 200.303 18.1465C199.673 18.1465 199.094 18.0293 198.567 17.7949C198.044 17.5605 197.59 17.2212 197.205 16.7769C196.824 16.3325 196.528 15.793 196.318 15.1582C196.108 14.5234 196.003 13.8057 196.003 13.0049V12.3311C196.003 11.5303 196.106 10.8149 196.311 10.1851C196.521 9.55029 196.816 9.01074 197.197 8.56641C197.578 8.11719 198.03 7.77539 198.552 7.54102C199.08 7.30664 199.658 7.18945 200.288 7.18945C200.938 7.18945 201.523 7.30664 202.046 7.54102C202.573 7.77539 203.025 8.11719 203.401 8.56641C203.782 9.01074 204.072 9.55029 204.272 10.1851C204.478 10.8149 204.58 11.5303 204.58 12.3311ZM203.181 13.0049V12.3164C203.181 11.6816 203.115 11.1201 202.983 10.6318C202.856 10.1436 202.668 9.7334 202.419 9.40137C202.17 9.06934 201.865 8.81787 201.504 8.64697C201.147 8.47607 200.742 8.39062 200.288 8.39062C199.849 8.39062 199.451 8.47607 199.094 8.64697C198.743 8.81787 198.44 9.06934 198.186 9.40137C197.937 9.7334 197.744 10.1436 197.607 10.6318C197.471 11.1201 197.402 11.6816 197.402 12.3164V13.0049C197.402 13.6445 197.471 14.2109 197.607 14.7041C197.744 15.1924 197.939 15.605 198.193 15.9419C198.452 16.2739 198.757 16.5254 199.109 16.6963C199.465 16.8672 199.863 16.9526 200.303 16.9526C200.762 16.9526 201.169 16.8672 201.526 16.6963C201.882 16.5254 202.183 16.2739 202.427 15.9419C202.676 15.605 202.864 15.1924 202.991 14.7041C203.118 14.2109 203.181 13.6445 203.181 13.0049ZM208.513 18H207.158V9.24023C207.158 8.66895 207.261 8.18799 207.466 7.79736C207.676 7.40186 207.976 7.104 208.367 6.90381C208.757 6.69873 209.221 6.59619 209.758 6.59619C209.915 6.59619 210.071 6.60596 210.227 6.62549C210.388 6.64502 210.544 6.67432 210.696 6.71338L210.623 7.81934C210.52 7.79492 210.403 7.77783 210.271 7.76807C210.144 7.7583 210.017 7.75342 209.89 7.75342C209.602 7.75342 209.353 7.81201 209.143 7.9292C208.938 8.0415 208.782 8.20752 208.674 8.42725C208.567 8.64697 208.513 8.91797 208.513 9.24023V18ZM210.271 10.0752V11.1152H205.906V10.0752H210.271ZM212.798 18H211.443V9.38672C211.443 8.78613 211.558 8.27832 211.787 7.86328C212.021 7.44824 212.356 7.1333 212.791 6.91846C213.225 6.70361 213.74 6.59619 214.336 6.59619C214.692 6.59619 215.039 6.64014 215.376 6.72803C215.713 6.81104 216.06 6.91602 216.416 7.04297L216.182 8.18555C215.962 8.09766 215.703 8.01465 215.405 7.93652C215.107 7.85352 214.785 7.81201 214.438 7.81201C213.857 7.81201 213.438 7.94385 213.179 8.20752C212.925 8.46631 212.798 8.85938 212.798 9.38672V18ZM214.417 10.0752V11.1152H210.19V10.0752H214.417ZM217.083 10.0752V18H215.728V10.0752H217.083ZM222.466 17.0332C222.788 17.0332 223.086 16.9673 223.359 16.8354C223.633 16.7036 223.857 16.5229 224.033 16.2935C224.209 16.0591 224.309 15.793 224.333 15.4951H225.623C225.598 15.9639 225.439 16.4009 225.146 16.8062C224.858 17.2065 224.48 17.5312 224.011 17.7803C223.542 18.0244 223.027 18.1465 222.466 18.1465C221.87 18.1465 221.35 18.0415 220.906 17.8315C220.466 17.6216 220.1 17.3335 219.807 16.9673C219.519 16.6011 219.302 16.1812 219.155 15.7075C219.014 15.229 218.943 14.7236 218.943 14.1914V13.8838C218.943 13.3516 219.014 12.8486 219.155 12.375C219.302 11.8965 219.519 11.4741 219.807 11.1079C220.1 10.7417 220.466 10.4536 220.906 10.2437C221.35 10.0337 221.87 9.92871 222.466 9.92871C223.086 9.92871 223.628 10.0557 224.092 10.3096C224.556 10.5586 224.919 10.9004 225.183 11.335C225.452 11.7646 225.598 12.2529 225.623 12.7998H224.333C224.309 12.4727 224.216 12.1772 224.055 11.9136C223.899 11.6499 223.684 11.4399 223.411 11.2837C223.142 11.1226 222.827 11.042 222.466 11.042C222.051 11.042 221.702 11.125 221.418 11.291C221.14 11.4521 220.918 11.6719 220.752 11.9502C220.591 12.2236 220.474 12.5288 220.4 12.8657C220.332 13.1978 220.298 13.5371 220.298 13.8838V14.1914C220.298 14.5381 220.332 14.8799 220.4 15.2168C220.469 15.5537 220.583 15.8589 220.745 16.1323C220.911 16.4058 221.133 16.6255 221.411 16.7915C221.694 16.9526 222.046 17.0332 222.466 17.0332ZM230.435 18.1465C229.883 18.1465 229.382 18.0537 228.933 17.8682C228.489 17.6777 228.105 17.4116 227.783 17.0698C227.466 16.728 227.222 16.3228 227.051 15.854C226.88 15.3853 226.794 14.8726 226.794 14.3159V14.0083C226.794 13.3638 226.89 12.79 227.08 12.2871C227.271 11.7793 227.529 11.3496 227.856 10.998C228.184 10.6465 228.555 10.3804 228.97 10.1997C229.385 10.019 229.814 9.92871 230.259 9.92871C230.825 9.92871 231.313 10.0264 231.724 10.2217C232.139 10.417 232.478 10.6904 232.742 11.042C233.005 11.3887 233.201 11.7988 233.328 12.2725C233.455 12.7412 233.518 13.2539 233.518 13.8105V14.4185H227.6V13.3125H232.163V13.21C232.144 12.8584 232.07 12.5166 231.943 12.1846C231.821 11.8525 231.626 11.5791 231.357 11.3643C231.089 11.1494 230.723 11.042 230.259 11.042C229.951 11.042 229.668 11.1079 229.409 11.2397C229.15 11.3667 228.928 11.5571 228.743 11.811C228.557 12.0649 228.413 12.375 228.311 12.7412C228.208 13.1074 228.157 13.5298 228.157 14.0083V14.3159C228.157 14.6919 228.208 15.0459 228.311 15.3779C228.418 15.7051 228.572 15.9932 228.772 16.2422C228.977 16.4912 229.224 16.6865 229.512 16.8281C229.805 16.9697 230.137 17.0405 230.508 17.0405C230.986 17.0405 231.392 16.9429 231.724 16.7476C232.056 16.5522 232.346 16.291 232.595 15.9639L233.416 16.6157C233.245 16.8745 233.027 17.1211 232.764 17.3555C232.5 17.5898 232.175 17.7803 231.79 17.9268C231.409 18.0732 230.957 18.1465 230.435 18.1465ZM236.455 11.3203V18H235.1V10.0752H236.418L236.455 11.3203ZM238.931 10.0312L238.923 11.291C238.811 11.2666 238.704 11.252 238.601 11.2471C238.503 11.2373 238.391 11.2324 238.264 11.2324C237.952 11.2324 237.676 11.2812 237.437 11.3789C237.197 11.4766 236.995 11.6133 236.829 11.7891C236.663 11.9648 236.531 12.1748 236.433 12.4189C236.34 12.6582 236.279 12.9219 236.25 13.21L235.869 13.4297C235.869 12.9512 235.916 12.502 236.008 12.082C236.106 11.6621 236.255 11.291 236.455 10.9688C236.655 10.6416 236.909 10.3877 237.217 10.207C237.529 10.0215 237.9 9.92871 238.33 9.92871C238.428 9.92871 238.54 9.94092 238.667 9.96533C238.794 9.98486 238.882 10.0068 238.931 10.0312Z" fill="black"/>
<defs>
<clipPath id="clip0_1_307">
<rect width="115.216" height="25" fill="white" transform="translate(0 32)"/>
</clipPath>
</defs>
</svg>
